<svg width="487.619" height="510.941" xmlns="http://www.w3.org/2000/svg">

 <g>
  <title>Layer 1</title>
  <path id="svg_1" fill-rule="evenodd" d="m84.085,91.118c15.81,12.845 21.741,11.865 51.43,9.884l279.888,-16.806c5.936,0 1,-5.922 -0.98,-6.906l-46.483,-33.604c-8.907,-6.915 -20.773,-14.834 -43.516,-12.853l-271.016,19.767c-9.884,0.98 -11.858,5.922 -7.922,9.883l38.599,30.635zm16.804,65.228l0,294.491c0,15.827 7.909,21.748 25.71,20.769l307.597,-17.799c17.81,-0.979 19.794,-11.865 19.794,-24.722l0,-292.515c0,-12.836 -4.938,-19.758 -15.84,-18.77l-321.442,18.77c-11.863,0.997 -15.82,6.931 -15.82,19.776l0.001,0zm-70.236,-132.427l281.9,-20.76c34.618,-2.969 43.525,-0.98 65.283,14.825l89.986,63.247c14.848,10.876 19.797,13.837 19.797,25.693l0,346.883c0,21.74 -7.92,34.597 -35.608,36.564l-327.371,19.769c-20.785,0.991 -30.677,-1.971 -41.562,-15.815l-66.267,-85.978c-11.873,-15.827 -16.811,-27.667 -16.811,-41.519l0,-308.333c0,-17.778 7.922,-32.608 30.653,-34.576z"/>
  <g/>
  <g>
   <path stroke="null" fill="#0B1719" d="m239.1428,366.80375l35.66665,0l0,35.66665l-106.99995,0l0,-35.66665l35.66665,0l0,-35.66665l35.66665,0l0,35.66665zm142.6666,0l0,-35.66665l-35.66665,0l0,35.66665l35.66665,0zm-213.99991,-71.3333l0,35.66665l35.66665,0l0,-35.66665l-35.66665,0zm142.6666,106.99995l35.66665,0l0,-35.66665l-35.66665,0l0,35.66665zm35.66665,-142.6666l0,35.66665l35.66665,0l0,-106.99995l-35.66665,0l0,35.66665l-35.66665,0l0,35.66665l35.66665,0zm-35.66665,35.66665l0,-35.66665l-35.66665,0l0,-35.66665l35.66665,0l0,-35.66665l-106.99995,0l0,35.66665l-35.66665,0l0,35.66665l35.66665,0l0,35.66665l35.66665,0l0,35.66665l35.66665,0l0,35.66665l35.66665,0l0,-35.66665l35.66665,0l0,-35.66665l-35.66665,0z" class="afiado_een"/>
  </g>
 </g>
</svg>